<svg width="1341" height="922" viewBox="0 0 1341 922" fill="none" xmlns="http://www.w3.org/2000/svg">
<mask id="mask0_96_428" style="mask-type:alpha" maskUnits="userSpaceOnUse" x="0" y="0" width="1341" height="922">
<path d="M298.401 29.7814C300.195 -180.762 -130.785 801.008 40.0638 600.859C87.7882 544.95 209.824 286.556 315 381C357.5 413 236.187 576.911 236.187 576.911C136.213 747.148 527.699 465.805 406 313.48C348.17 241.096 198.256 313.48 198.256 313.48C222.685 246.567 297.77 103.787 298.401 29.7814Z" fill="white"/>
<path d="M1058.32 64.6127C1080.47 -80.9955 858.956 355.776 784.5 562C768.656 605.885 760.902 642.829 762.501 658C764.129 673.453 790.142 647.467 818 604.5C847.5 559 960.282 357 971 334C978.456 318 1032.44 234.862 1058.32 64.6127Z" fill="white"/>
<path d="M541.234 892.219C539.44 1102.76 970.42 120.992 799.571 321.141C772.939 352.34 722.843 442.925 668 501.5C616.742 556.247 561.161 581.705 521.637 541.398C491.98 511.154 603.448 345.089 603.448 345.089C703.422 174.853 296.503 469.214 435.81 608.521C508.082 680.793 641.379 608.521 641.379 608.521C616.95 675.434 541.865 818.213 541.234 892.219Z" fill="white"/>
<path d="M1262.36 264.173C1220.53 239.122 1167.75 236.234 1115.64 256.144C1063.53 276.055 1016.35 317.133 984.483 370.343C952.616 423.552 938.67 484.534 945.715 539.873C952.759 595.212 980.216 640.375 1022.04 665.427C1042.76 677.832 1066.37 684.926 1091.55 686.304C1116.72 687.682 1142.96 683.317 1168.76 673.458C1194.57 663.599 1219.43 648.44 1241.93 628.846C1264.44 609.252 1284.14 585.606 1299.92 559.259C1315.7 532.912 1327.24 504.38 1333.9 475.292C1340.55 446.203 1342.18 417.129 1338.69 389.727C1335.2 362.326 1326.66 337.135 1313.57 315.592C1300.47 294.05 1283.07 276.578 1262.36 264.173ZM1218.18 337.932C1231.28 345.776 1242.28 356.825 1250.57 370.447C1258.85 384.07 1264.25 400 1266.45 417.327C1268.66 434.655 1267.63 453.04 1263.42 471.434C1259.21 489.829 1251.91 507.871 1241.94 524.532C1231.96 541.192 1219.5 556.144 1205.27 568.535C1191.04 580.925 1175.31 590.511 1159 596.745C1142.68 602.979 1126.09 605.739 1110.17 604.868C1094.25 603.996 1079.32 599.51 1066.22 591.666C1039.77 575.824 1022.41 547.266 1017.95 512.272C1013.5 477.279 1022.32 438.717 1042.47 405.07C1062.62 371.423 1092.45 345.447 1125.41 332.856C1158.36 320.265 1191.73 322.091 1218.18 337.932Z" fill="white"/>
</mask>
<g mask="url(#mask0_96_428)">
<rect width="1341" height="922" fill="url(#paint0_linear_96_428)"/>
</g>
<defs>
<linearGradient id="paint0_linear_96_428" x1="0" y1="461" x2="1341" y2="461" gradientUnits="userSpaceOnUse">
<stop stop-color="#7AD5FF"/>
<stop offset="1" stop-color="#27E7D4"/>
</linearGradient>
</defs>
</svg>
